HIERARCHY
ROOT Hips
{
	OFFSET 0.00000 0.00000 0.00000
	CHANNELS 6 Xposition Yposition Zposition Zrotation Yrotation Xrotation 
	JOINT LHipJoint
	{
		OFFSET 0 0 0
		CHANNELS 3 Zrotation Yrotation Xrotation
		JOINT LeftHip
		{
			OFFSET 1.92384 -1.64427 0.83032
			CHANNELS 3 Zrotation Yrotation Xrotation
			JOINT LeftKnee
			{
				OFFSET 2.52872 -6.94761 0.00000
				CHANNELS 3 Zrotation Yrotation Xrotation
				JOINT LeftAnkle
				{
					OFFSET 2.51827 -6.91890 0.00000
					CHANNELS 3 Zrotation Yrotation Xrotation
					JOINT LeftToe
					{
						OFFSET 0.22757 -0.62524 2.06528
						CHANNELS 3 Zrotation Yrotation Xrotation
						End Site
						{
							OFFSET 0.00000 -0.00000 1.08218
						}
					}
				}
			}
		}
	}
	JOINT RHipJoint
	{
		OFFSET 0 0 0
		CHANNELS 3 Zrotation Yrotation Xrotation
		JOINT RightHip
		{
			OFFSET -2.09517 -1.64427 0.83032
			CHANNELS 3 Zrotation Yrotation Xrotation
			JOINT RightKnee
			{
				OFFSET -2.55173 -7.01082 0.00000
				CHANNELS 3 Zrotation Yrotation Xrotation
				JOINT RightAnkle
				{
					OFFSET -2.50265 -6.87598 0.00000
					CHANNELS 3 Zrotation Yrotation Xrotation
					JOINT RightToe
					{
						OFFSET -0.22612 -0.62126 1.98677
						CHANNELS 3 Zrotation Yrotation Xrotation
						End Site
						{
							OFFSET -0.00000 -0.00000 1.04433
						}
					}
				}
			}
		}
	}
	JOINT lowerback
	{
		OFFSET 0 0 0
		CHANNELS 3 Zrotation Yrotation Xrotation
		JOINT Chest
		{
			OFFSET 0.02839 1.68926 0.31690
			CHANNELS 3 Zrotation Yrotation Xrotation
			JOINT Chest2
			{
				OFFSET -0.01522 1.70183 0.21192
				CHANNELS 3 Zrotation Yrotation Xrotation
				JOINT lowerneck
				{
					OFFSET 0 0 0
					CHANNELS 3 Zrotation Yrotation Xrotation
					JOINT Neck
					{
						OFFSET -0.04523 1.88988 0.10630
						CHANNELS 3 Zrotation Yrotation Xrotation
						JOINT Head
						{
							OFFSET 0.05172 1.78070 -0.56858
							CHANNELS 3 Zrotation Yrotation Xrotation
							End Site
							{
								OFFSET 0.01532 1.90392 -0.20434
							}
						}
					}
				}
				JOINT LeftCollar
				{
					OFFSET 0 0 0
					CHANNELS 3 Zrotation Yrotation Xrotation
					JOINT LeftShoulder
					{
						OFFSET 3.25522 0.75486 0.22086
CHANNELS 3 Zrotation Xrotation Yrotation
						JOINT LeftElbow
						{
OFFSET 0 -4.856450 0.000000
CHANNELS 3 Zrotation Xrotation Yrotation
							JOINT LeftWrist
							{
OFFSET 0 -2.798740 0.000000
CHANNELS 3 Zrotation Xrotation Yrotation
								JOINT lhand
								{
									OFFSET 0 0 0
CHANNELS 3 Zrotation Xrotation Yrotation
									JOINT LFingers
									{
OFFSET 0 -0.573400 0.000000
CHANNELS 3 Zrotation Xrotation Yrotation
										End Site
										{
OFFSET 0 -0.462290 0.000000
										}
									}
								}
								JOINT LThumb
								{
OFFSET 0 0.000000 0.000000
CHANNELS 3 Zrotation Xrotation Yrotation
									End Site
									{
OFFSET 0 -0.469350 0.469350
									}
								}
							}
						}
					}
				}
				JOINT RightCollar
				{
					OFFSET 0 0 0
					CHANNELS 3 Zrotation Yrotation Xrotation
					JOINT RightShoulder
					{
						OFFSET -3.29079 0.52751 0.36356
CHANNELS 3 Zrotation Xrotation Yrotation
						JOINT RightElbow
						{
OFFSET 0 -4.670180 0.000000
CHANNELS 3 Zrotation Xrotation Yrotation
							JOINT RightWrist
							{
OFFSET 0 -2.655340 0.000000
CHANNELS 3 Zrotation Xrotation Yrotation
								JOINT rhand
								{
									OFFSET 0 0 0
CHANNELS 3 Zrotation Xrotation Yrotation
									JOINT RFingers
									{
OFFSET 0 -0.594070 0.000000
CHANNELS 3 Zrotation Xrotation Yrotation
										End Site
										{
OFFSET 0 -0.478950 0.000000
										}
									}
								}
								JOINT RThumb
								{
OFFSET 0 0.000000 0.000000
CHANNELS 3 Zrotation Xrotation Yrotation
									End Site
									{
OFFSET 0 -0.486270 0.486270
									}
								}
							}
						}
					}
				}
			}
		}
	}
}
MOTION
Frames: 6
Frame Time: 0.008333333333333333
7.723300 10.837400 15.890400 2.335200 -1.521900 18.102900 0.000000 0.000000 0.000000 5.229100 -16.617900 -99.822200 11.637300 18.233100 64.834500 0.289200 0.341100 10.043400 0.982600 -6.309700 -17.685700 0.000000 0.000000 0.000000 -6.996700 12.900400 -102.243300 -13.161400 -18.839700 69.626100 -0.109200 -5.929500 6.719600 -0.021000 0.935200 -2.570400 -2.890300 -0.396600 0.646400 -1.995200 -1.028400 -12.814000 -0.463300 -0.317300 -14.367500 -6.513600 -4.359500 -13.323100 7.323800 -6.775100 27.328200 2.865200 -2.878700 11.583000 0.000000 -0.000000 0.000000 7.970800 -7.946400 -69.967800 39.661300 -47.867900 18.187600 6.531200 22.150500 -18.471200 0.000000 0.000000 0.000000 -7.125000 0.000000 0.000000 -20.583800 47.451700 1.297800 0.000000 -0.000000 0.000000 -5.154400 -6.921200 70.800600 -40.304200 -48.249100 -18.665900 -16.825900 26.197800 6.017400 0.000000 0.000000 0.000000 7.125000 0.000000 -0.000000 8.307000 36.157400 1.821500
7.722106 10.830475 15.882110 2.354850 -1.502379 17.909731 0.000000 0.000000 0.000000 5.121891 -16.639309 -99.659135 11.634416 18.231840 64.825299 0.290118 0.183999 10.110295 0.975004 -6.286089 -17.616714 0.000000 0.000000 0.000000 -7.014281 12.906490 -102.062104 -13.158552 -18.838670 69.617160 -0.116383 -6.024141 6.899861 -0.021035 0.935601 -2.571650 -2.849370 -0.412068 0.933023 -1.970590 -1.057018 -12.811311 -0.454080 -0.332339 -14.547027 -6.519518 -4.397639 -13.408024 7.276987 -6.826160 27.520159 2.843258 -2.904631 11.677551 0.000000 0.000000 0.000000 7.909654 -7.815421 -69.662911 39.704592 -47.893873 18.219773 7.096750 22.441528 -18.752571 0.000000 0.000000 0.000000 -7.125000 0.000000 0.000000 -20.189781 47.792418 1.446660 0.000000 0.000000 0.000000 -5.258568 -6.900422 70.848121 -40.336621 -48.268081 -18.690104 -17.834149 26.349802 6.131220 0.000000 0.000000 0.000000 7.125000 0.000000 0.000000 7.482374 36.330529 1.606320
7.722200 10.826928 15.877045 2.393809 -1.453986 17.788157 0.000000 0.000000 0.000000 5.038393 -16.702849 -99.533885 11.617699 18.224297 64.771708 0.297303 -0.014123 10.305545 0.976766 -6.291380 -17.632217 0.000000 0.000000 0.000000 -7.054871 12.856674 -101.921647 -13.148491 -18.835117 69.586008 -0.126504 -6.216624 7.169000 -0.019959 0.912257 -2.507500 -2.791843 -0.430801 1.076538 -1.964327 -1.083463 -12.804521 -0.474916 -0.350688 -14.630711 -6.562294 -4.443350 -13.483354 7.307383 -6.899935 27.681625 2.852837 -2.935692 11.765353 0.000000 0.000000 0.000000 7.864503 -7.745846 -69.370032 39.766225 -47.930765 18.265499 7.422448 22.877128 -18.967577 0.000000 0.000000 0.000000 -7.125000 0.000000 0.000000 -19.984244 48.039500 1.556777 0.000000 0.000000 0.000000 -5.321562 -6.878246 70.706572 -40.313383 -48.254454 -18.672677 -18.804228 26.913294 6.293477 0.000000 0.000000 0.000000 7.125000 0.000000 0.000000 6.691999 36.554141 1.398158
7.722200 10.822963 15.872639 2.445818 -1.413304 17.666578 0.000000 0.000000 0.000000 4.946315 -16.765224 -99.397968 11.594492 18.213947 64.697596 0.308797 -0.191820 10.568487 0.982759 -6.310323 -17.687492 0.000000 0.000000 0.000000 -7.118167 12.808626 -101.783655 -13.137994 -18.831416 69.553587 -0.140156 -6.426282 7.502293 -0.019653 0.905608 -2.489068 -2.754891 -0.451976 1.203166 -1.959205 -1.113923 -12.791624 -0.484890 -0.368821 -14.695903 -6.601329 -4.485391 -13.552177 7.336111 -6.968475 27.831672 2.861702 -2.964437 11.847041 0.000000 0.000000 0.000000 7.823572 -7.657228 -69.040749 39.885875 -48.002061 18.354398 7.699538 23.388519 -19.146739 0.000000 0.000000 0.000000 -7.125000 0.000000 0.000000 -19.807342 48.246761 1.646713 0.000000 0.000000 0.000000 -5.372198 -6.858344 70.578684 -40.326931 -48.262441 -18.682856 -19.775323 27.522203 6.510354 0.000000 0.000000 0.000000 7.125000 0.000000 0.000000 5.903189 36.838221 1.190495
7.722035 10.819716 15.868721 2.518837 -1.381547 17.529883 0.000000 0.000000 0.000000 4.843571 -16.832851 -99.222986 11.565043 18.200672 64.603295 0.328916 -0.330921 10.957834 0.994255 -6.345991 -17.791688 0.000000 0.000000 0.000000 -7.207901 12.761342 -101.624095 -13.124578 -18.826661 69.511891 -0.160386 -6.693846 7.959704 -0.018310 0.872826 -2.399050 -2.748127 -0.473926 1.320208 -1.958005 -1.147694 -12.762664 -0.481682 -0.385405 -14.734968 -6.650661 -4.522142 -13.613019 7.385715 -7.031777 27.961577 2.880869 -2.989728 11.920406 0.000000 0.000000 0.000000 7.791413 -7.560442 -68.681933 40.083545 -48.119313 18.501395 7.978508 24.042846 -19.239767 0.000000 0.000000 0.000000 -7.125000 0.000000 0.000000 -19.591634 48.373710 1.690743 0.000000 0.000000 0.000000 -5.393820 -6.843062 70.431213 -40.370169 -48.287673 -18.715131 -20.730383 28.231339 6.760648 0.000000 0.000000 0.000000 7.125000 0.000000 0.000000 5.126532 37.160580 0.992408
7.721228 10.816797 15.863448 2.605743 -1.371506 17.323619 0.000000 0.000000 0.000000 4.717626 -16.890933 -98.951023 11.528690 18.184226 64.486821 0.360998 -0.410586 11.504613 0.997523 -6.356064 -17.821170 0.000000 0.000000 0.000000 -7.306722 12.742226 -101.382453 -13.101634 -18.818568 69.440853 -0.190702 -7.035588 8.584926 -0.013783 0.756635 -2.079455 -2.782473 -0.496205 1.505968 -1.950439 -1.187145 -12.706677 -0.446972 -0.399204 -14.784044 -6.709122 -4.547108 -13.644510 7.443391 -7.076782 28.053196 2.907288 -3.007796 11.971950 0.000000 0.000000 0.000000 7.747838 -7.454584 -68.255618 40.326635 -48.262147 18.682611 8.233813 24.797715 -19.183880 0.000000 0.000000 0.000000 -7.125000 0.000000 0.000000 -19.333872 48.356808 1.658677 0.000000 0.000000 0.000000 -5.386449 -6.838056 70.270724 -40.417521 -48.315334 -18.750473 -21.586747 28.932791 6.981925 0.000000 0.000000 0.000000 7.125000 0.000000 0.000000 4.425501 37.449858 0.824680
